<mxfile host="app.diagrams.net" modified="2024-03-06T10:21:06.243Z" agent="Mozilla/5.0 (Windows NT 10.0; Win64; x64) AppleWebKit/537.36 (KHTML, like Gecko) Chrome/121.0.0.0 Safari/537.36 OPR/107.0.0.0" version="23.1.7" etag="CChFfC5swilaLD6E2ENj" type="github">
  <diagram name="PÃ¡gina-1" id="kAnOpgZXaPXEC-2AFAyy">
    <mxGraphModel>
      <root>
        <mxCell id="0" />
        <mxCell id="1" parent="0" />
      </root>
    </mxGraphModel>
  </diagram>
</mxfile>
